<?xml version="1.0" encoding="utf-8"?>
<!-- Generator: Adobe Illustrator 21.0.0, SVG Export Plug-In . SVG Version: 6.00 Build 0)  -->
<svg version="1.1" id="Слой_1" xmlns="http://www.w3.org/2000/svg" xmlns:xlink="http://www.w3.org/1999/xlink" x="0px" y="0px"
	 viewBox="0 0 399.7 76.6" style="enable-background:new 0 0 399.7 76.6;" xml:space="preserve">
<style type="text/css">
	.st0{fill:#C30000;}
	.st1{fill:#FFFFFF;}
</style>
<g>
	<g>
		<g>
			<path class="st0" d="M99.1,12.2h9.2v50.6h-9.2V12.2z"/>
			<path class="st0" d="M138.5,20.1h-16.4v-8h42v8h-16.4v42.6h-9.2V20.1L138.5,20.1z"/>
			<path class="st0" d="M177.8,12.2h9.2v42.6h25.8v8h-35.1V12.2z"/>
			<path class="st0" d="M259.3,51.1h-24.8l-4.9,11.7h-9.4l22.3-50.6h9.1L274,62.8h-9.6L259.3,51.1z M256.3,43.7L247,21.5l-9.3,22.1
				H256.3z"/>
			<path class="st0" d="M330.9,12.2v50.6h-7.6L296,28.5v34.3h-9.1V12.2h7.6l27.3,34.3V12.2H330.9z"/>
			<path class="st0" d="M351.1,12.2h21.6c16,0,27,10.1,27,25.3s-11,25.3-27,25.3h-21.6V12.2z M372.3,54.8c11,0,18.2-6.9,18.2-17.3
				s-7.1-17.3-18.2-17.3h-12v34.7H372.3z"/>
		</g>
	</g>
	<g>
		<rect class="st0" width="75.6" height="76.6"/>
		<g>
			<g>
				<path class="st1" d="M33.4,20.2H16.9v-8h41.9v8H42.5v42.6h-9.1V20.2z"/>
			</g>
		</g>
		<rect x="35.8" y="53.1" class="st1" width="22.4" height="9.7"/>
	</g>
</g>
</svg>
